# xmcd CD database file
# Copyright (C) 1997 Ti Kan
# 
# Track frame offsets:
#     150
#     14738
#     29725
#     45950
#     60388
#     75800
#     88663
#     101088
#     114013
#     126188
#     139325
#     150775
#     159975
#     167938
#     179225
#     187350
#     197625
#     206350
# 
# Disc length: 2890 seconds
# 
# Revision: 1
# Processed by: cddbd v1.4b41PL1 Copyright (c) Steve Scherf et al.
# Submitted via: DiscPlay 4.0.3
# 
DISCID=ed0b4812
DTITLE=Various Artist - Merle Haggard and Roger Miller
DYEAR=1900
DGENRE=
TTITLE0=Train Whistle Blues
TTITLE1=Why Should I Be Lonely
TTITLE2=Texas Blues
TTITLE3=Blue Yodel
TTITLE4=Mule Skinner Blues
TTITLE5=California Blues
TTITLE6=Hobo's Meditation
TTITLE7=Waitin' For A Train
TTITLE8=Mother Queen Of My Heart
TTITLE9=My Carolina Sunshine Girl
TTITLE10=King Of The Road
TTITLE11=Chug A Lug
TTITLE12=Dang Me
TTITLE13=Husbands And Wives
TTITLE14=In The Summertime
TTITLE15=Engine Engine No 9
TTITLE16=You Can't Rollerskate In A Buffalo Herd
TTITLE17=Release Me
EXTD=
EXTT0=
EXTT1=
EXTT2=
EXTT3=
EXTT4=
EXTT5=
EXTT6=
EXTT7=
EXTT8=
EXTT9=
EXTT10=
EXTT11=
EXTT12=
EXTT13=
EXTT14=
EXTT15=
EXTT16=
EXTT17=
PLAYORDER=
